<svg width="14" height="14" viewBox="0 0 14 14" fill="none" xmlns="http://www.w3.org/2000/svg">
<g clip-path="url(#clip0_36_217)">
<path d="M13.6454 7.0844C13.8833 7.13125 14.0383 7.36187 13.9917 7.59954L13.8181 8.48362C13.7701 8.72835 13.5274 8.8853 13.2824 8.82517C13.0529 8.769 12.9137 8.53443 12.9592 8.30269L12.964 8.27897L11.8196 8.3312C11.7852 8.33261 11.7553 8.35547 11.7445 8.3885C11.6328 8.72609 11.4857 9.04789 11.3076 9.34879C11.2895 9.37927 11.2923 9.41795 11.3152 9.44504L11.8213 10.0463C11.9218 9.95059 12.0531 9.90091 12.1857 9.90091C12.2975 9.90091 12.4104 9.9362 12.5061 10.0096C12.7379 10.1869 12.7819 10.5185 12.6046 10.7506L12.4579 10.9422C12.2857 11.1675 11.9647 11.2279 11.731 11.0667C11.5297 10.9281 11.4569 10.6789 11.5297 10.4624L10.8006 10.142C10.7676 10.1276 10.7295 10.136 10.7055 10.1626C10.3679 10.5332 9.97498 10.8522 9.53972 11.1068C9.50979 11.1243 9.49371 11.1582 9.49935 11.1923L9.68593 12.3304L9.84739 12.2658C10.0791 12.1732 10.3428 12.2918 10.4255 12.5303C10.5028 12.7536 10.3815 12.9977 10.1621 13.0852L9.33704 13.4155C9.10558 13.5081 8.84194 13.3895 8.75923 13.151C8.68189 12.9277 8.80327 12.6836 9.02259 12.5958L9.04489 12.587L8.37929 11.6544C8.35925 11.6262 8.32397 11.6137 8.29038 11.6225C7.89265 11.7255 7.47545 11.7809 7.04527 11.7809C6.70485 11.7809 6.3729 11.7461 6.05195 11.6806C6.01808 11.6739 5.98336 11.6883 5.96473 11.7173L5.29885 12.762L5.32228 12.7705C5.53906 12.8495 5.67342 13.0542 5.67342 13.2721C5.67342 13.3331 5.66298 13.3949 5.64096 13.4553C5.64096 13.7678 5.40075 13.936 5.10719 13.8287L4.28888 13.5304C4.01507 13.4307 3.87224 13.1301 3.9668 12.8555C4.06391 12.5723 4.38654 12.4295 4.66769 12.532L4.6866 12.5388L4.82209 11.3145C4.82604 11.2801 4.80798 11.2474 4.77721 11.2313C4.25896 10.9637 3.79405 10.6072 3.40254 10.1818C3.37883 10.1561 3.34185 10.1476 3.30967 10.1609L2.31099 10.5705C2.4239 10.7816 2.36039 11.0492 2.15433 11.1847C1.93924 11.3261 1.64878 11.2603 1.502 11.0492L1.24626 10.6808C1.10314 10.4751 1.13645 10.1883 1.33348 10.033C1.54349 9.86761 1.84298 9.91051 2.00021 10.1185L2.70363 9.32367C2.72706 9.29713 2.73101 9.25874 2.71379 9.22798C2.42503 8.70746 2.22744 8.12937 2.14247 7.51543C2.13768 7.48099 2.11255 7.45304 2.07896 7.44542L0.954952 7.18573L0.953823 7.31755C0.952693 7.44937 0.898497 7.56878 0.811275 7.65487C0.724335 7.74125 0.604651 7.79431 0.472547 7.79431C0.210034 7.79431 -0.00251792 7.58007 2.25382e-05 7.31755L0.00736163 6.50094C0.00961982 6.23391 0.230357 6.00894 0.497105 6.01599C0.755949 6.02277 0.962573 6.2356 0.961162 6.49529L2.07699 6.23363C2.11086 6.22572 2.13598 6.19778 2.1405 6.16334C2.228 5.51411 2.44168 4.90469 2.75585 4.36046C2.77335 4.32998 2.77025 4.29187 2.74738 4.26477L2.2153 3.63982L2.16901 3.70079C2.02561 3.89048 1.75181 3.9235 1.56692 3.76967C1.3936 3.62514 1.37243 3.36602 1.50849 3.18621L1.86302 2.71763C1.94545 2.60896 2.07049 2.55166 2.19723 2.55166C2.28502 2.55166 2.37366 2.57932 2.4493 2.63634C2.6246 2.76873 2.66581 3.01205 2.55008 3.19439L3.29415 3.51618C3.32689 3.5303 3.36472 3.52183 3.38899 3.49558C3.74014 3.11056 4.15141 2.78143 4.60813 2.52258C4.63805 2.50537 4.6547 2.47177 4.64962 2.43762L4.47828 1.29696L4.31569 1.35962C4.0831 1.4491 3.82087 1.32688 3.74155 1.08751C3.66703 0.863102 3.79179 0.620629 4.01225 0.535948L4.84157 0.216979C5.07444 0.127499 5.33639 0.249441 5.41571 0.48909C5.49023 0.713215 5.36575 0.955687 5.14501 1.04065L5.12271 1.04912L5.77533 1.99022C5.79508 2.01873 5.83009 2.03171 5.86368 2.02353C6.24249 1.93066 6.63795 1.88154 7.04527 1.88154H7.04584C7.0814 1.88154 7.1133 1.85981 7.12515 1.82622L7.34137 1.22159C7.091 1.14312 6.92418 0.896128 6.95607 0.626839C6.99249 0.321702 7.28464 0.104917 7.58978 0.143306L7.88673 0.180566C8.18932 0.218673 8.41627 0.489655 8.38324 0.793098C8.35727 1.02936 8.18735 1.2134 7.97169 1.26986L8.04678 1.92529C8.05073 1.96058 8.07698 1.98937 8.11198 1.99699C8.61386 2.10736 9.08723 2.29394 9.51911 2.54375C9.54931 2.56097 9.58657 2.55843 9.61339 2.53642L10.509 1.80956L10.373 1.70145C10.1774 1.5462 10.1497 1.25857 10.3157 1.0686C10.4709 0.890482 10.7433 0.874675 10.9282 1.02174L11.624 1.57415C11.8196 1.72911 11.8473 2.01703 11.6813 2.207C11.5261 2.38483 11.2537 2.40064 11.0688 2.25386L11.0499 2.2389L10.5703 3.2802C10.5556 3.31154 10.5624 3.34851 10.5867 3.37335C10.9243 3.71914 11.2116 4.11432 11.4369 4.54676C11.4532 4.5781 11.4874 4.59588 11.5224 4.59108L12.2024 4.49595C12.1025 4.21707 12.2507 3.90798 12.5358 3.81455C12.8076 3.72535 13.1006 3.87636 13.2005 4.14452L13.3572 4.56455C13.456 4.83016 13.3374 5.13417 13.0777 5.24708C12.8288 5.35519 12.5479 5.25753 12.4141 5.03679L11.8498 5.41955C11.8202 5.43959 11.8069 5.47629 11.8165 5.51072C11.9325 5.93131 11.9946 6.37392 11.9946 6.8312C11.9946 6.90769 11.9929 6.98362 11.9893 7.05899C11.9879 7.09371 12.0073 7.12561 12.039 7.13944L13.0969 7.60152L13.1302 7.43075C13.1771 7.19279 13.4077 7.03782 13.6454 7.0844Z" fill="#F79595"/>
<path d="M9.19452 4.97861C9.58046 4.97861 9.89332 4.71702 9.89332 4.39434C9.89332 4.07165 9.58046 3.81006 9.19452 3.81006C8.80859 3.81006 8.49573 4.07165 8.49573 4.39434C8.49573 4.71702 8.80859 4.97861 9.19452 4.97861Z" fill="#EE6161"/>
<path d="M6.67274 8.79666C7.09457 8.79666 7.43654 8.4547 7.43654 8.03286C7.43654 7.61102 7.09457 7.26906 6.67274 7.26906C6.2509 7.26906 5.90894 7.61102 5.90894 8.03286C5.90894 8.4547 6.2509 8.79666 6.67274 8.79666Z" fill="#EE6161"/>
<path d="M9.64954 8.18181C9.95157 8.18181 10.1964 7.93696 10.1964 7.63493C10.1964 7.3329 9.95157 7.08806 9.64954 7.08806C9.34751 7.08806 9.10266 7.3329 9.10266 7.63493C9.10266 7.93696 9.34751 8.18181 9.64954 8.18181Z" fill="#F9B1B1"/>
<path d="M7.62983 10.8355C7.92348 10.8355 8.16152 10.5974 8.16152 10.3038C8.16152 10.0101 7.92348 9.77208 7.62983 9.77208C7.33619 9.77208 7.09814 10.0101 7.09814 10.3038C7.09814 10.5974 7.33619 10.8355 7.62983 10.8355Z" fill="#F9B1B1"/>
<path d="M4.03523 6.59415C4.03523 4.6914 4.94293 3.00028 6.34834 1.93021C6.18425 1.95336 6.02226 1.98463 5.86368 2.02353C5.83009 2.03171 5.79508 2.01873 5.77533 1.99022L5.12271 1.04912L5.14501 1.04065C5.36575 0.95569 5.49023 0.713218 5.41571 0.489093C5.33639 0.249444 5.07444 0.127502 4.84157 0.216982L4.01225 0.535951C3.79179 0.620633 3.66703 0.863105 3.74155 1.08751C3.82087 1.32688 4.0831 1.4491 4.31569 1.35962L4.47828 1.29696L4.64962 2.43762C4.6547 2.47178 4.63805 2.50537 4.60813 2.52259C4.15141 2.78143 3.74014 3.11056 3.38899 3.49558C3.36472 3.52183 3.32689 3.5303 3.29415 3.51619L2.55008 3.1944C2.66581 3.01205 2.6246 2.76873 2.4493 2.63634C2.37366 2.57932 2.28502 2.55166 2.19723 2.55166C2.07049 2.55166 1.94545 2.60896 1.86302 2.71764L1.50849 3.18621C1.37243 3.36602 1.3936 3.62514 1.56692 3.76967C1.75181 3.92351 2.02561 3.89048 2.16901 3.70079L2.2153 3.63982L2.74738 4.26477C2.77025 4.29187 2.77335 4.32998 2.75585 4.36047C2.44168 4.90469 2.228 5.51411 2.1405 6.16334C2.13598 6.19778 2.11086 6.22572 2.07699 6.23363L0.961162 6.49529C0.962573 6.2356 0.755949 6.02277 0.497105 6.016C0.230357 6.00894 0.00961982 6.23391 0.00736163 6.50094L2.25382e-05 7.31756C-0.00251792 7.58007 0.210034 7.79432 0.472547 7.79432C0.604651 7.79432 0.724335 7.74125 0.811275 7.65487C0.898497 7.56878 0.952693 7.44938 0.953823 7.31756L0.954952 7.18573L2.07896 7.44543C2.11255 7.45305 2.13768 7.48099 2.14247 7.51543C2.22744 8.12937 2.42503 8.70747 2.71379 9.22798C2.73101 9.25875 2.72706 9.29714 2.70363 9.32367L2.00021 10.1185C1.84298 9.91051 1.54349 9.86761 1.33348 10.033C1.13645 10.1883 1.10314 10.4751 1.24626 10.6808L1.502 11.0492C1.64878 11.2603 1.93924 11.3261 2.15433 11.1847C2.36039 11.0492 2.4239 10.7816 2.31099 10.5705L3.30967 10.1609C3.34185 10.1476 3.37883 10.1561 3.40254 10.1818C3.79405 10.6072 4.25896 10.9637 4.77721 11.2313C4.80798 11.2474 4.82604 11.2801 4.82209 11.3145L4.6866 12.5388L4.66769 12.532C4.38654 12.4295 4.06391 12.5723 3.9668 12.8555C3.87224 13.1301 4.01507 13.4307 4.28888 13.5304L5.10719 13.8287C5.40075 13.936 5.64096 13.7678 5.64096 13.4553C5.66298 13.3949 5.67342 13.3331 5.67342 13.2721C5.67342 13.0542 5.53906 12.8495 5.32228 12.7705L5.29885 12.762L5.96473 11.7173C5.98336 11.6883 6.01808 11.6739 6.05195 11.6806C6.3729 11.7461 6.70485 11.7809 7.04527 11.7809C7.08533 11.7809 7.12603 11.7803 7.16586 11.7794C5.30492 10.7981 4.03523 8.8442 4.03523 6.59415Z" fill="#F37C7C"/>
<path d="M4.3029 9.58581C4.6088 9.58581 4.85678 9.33783 4.85678 9.03193C4.85678 8.72604 4.6088 8.47806 4.3029 8.47806C3.997 8.47806 3.74902 8.72604 3.74902 9.03193C3.74902 9.33783 3.997 9.58581 4.3029 9.58581Z" fill="#EE6161"/>
<path d="M8.40215 6.59414H8.215C8.09805 6.59414 8.0033 6.49935 8.0033 6.38244C8.0033 6.26552 8.09805 6.17073 8.215 6.17073H8.40215C8.51909 6.17073 8.61385 6.26552 8.61385 6.38244C8.61385 6.49935 8.51909 6.59414 8.40215 6.59414Z" fill="#F9B1B1"/>
<path d="M5.90887 10.2947H5.71659C5.59964 10.2947 5.50488 10.2 5.50488 10.083C5.50488 9.96613 5.59964 9.87134 5.71659 9.87134H5.90887C6.02582 9.87134 6.12058 9.96613 6.12058 10.083C6.12058 10.2 6.02582 10.2947 5.90887 10.2947Z" fill="#F9B1B1"/>
<path d="M3.93429 7.21169H3.74906C3.63211 7.21169 3.53735 7.11691 3.53735 6.99999C3.53735 6.88307 3.63211 6.78828 3.74906 6.78828H3.93429C4.05123 6.78828 4.14599 6.88307 4.14599 6.99999C4.14599 7.11691 4.05123 7.21169 3.93429 7.21169Z" fill="#EE6161"/>
<path d="M7.69433 3.50781H7.43656C7.31961 3.50781 7.22485 3.41302 7.22485 3.2961C7.22485 3.17918 7.31961 3.0844 7.43656 3.0844H7.69433C7.81128 3.0844 7.90603 3.17918 7.90603 3.2961C7.90603 3.41302 7.81128 3.50781 7.69433 3.50781Z" fill="#F9B1B1"/>
<path d="M9.38734 9.60557H9.1027C8.98575 9.60557 8.89099 9.51078 8.89099 9.39386C8.89099 9.27695 8.98575 9.18216 9.1027 9.18216H9.38734C9.50429 9.18216 9.59904 9.27695 9.59904 9.39386C9.59904 9.51078 9.50426 9.60557 9.38734 9.60557Z" fill="#EE6161"/>
<path d="M6.15831 5.93318C6.79043 5.43473 6.96541 4.60268 6.54912 4.07476C6.13283 3.54683 5.28293 3.52294 4.6508 4.0214C4.01867 4.51986 3.84369 5.3519 4.25998 5.87983C4.67627 6.40775 5.52618 6.43164 6.15831 5.93318Z" fill="#EE6161"/>
</g>
<defs>
<clipPath id="clip0_36_217">
<rect width="14" height="14" fill="white"/>
</clipPath>
</defs>
</svg>
