<svg width="125" height="38" viewBox="0 0 125 38" fill="none" xmlns="http://www.w3.org/2000/svg">
<g clip-path="url(#clip0_36_89)">
<path d="M39.9812 12.5275L22.7437 1.32374C22.1041 0.938914 21.3721 0.735626 20.626 0.735626C19.88 0.735626 19.148 0.938914 18.5083 1.32374L1.76875 12.1997C1.39344 12.4171 1.08099 12.7286 0.862069 13.1035C0.643146 13.4785 0.525273 13.9041 0.52002 14.3385C0.514767 14.7729 0.622315 15.2012 0.832107 15.5814C1.0419 15.9616 1.34672 16.2806 1.71666 16.507L18.4958 27.978C19.129 28.3808 19.8615 28.5991 20.6113 28.6083C21.3612 28.6175 22.0989 28.4174 22.7417 28.0302L39.9812 16.8286C40.3587 16.6115 40.6723 16.2984 40.8903 15.921C41.1084 15.5436 41.2232 15.1152 41.2232 14.6791C41.2232 14.2429 41.1084 13.8145 40.8903 13.4371C40.6723 13.0597 40.3587 12.7466 39.9812 12.5296V12.5275ZM21.0229 25.3577C20.9078 25.4071 20.7835 25.4317 20.6583 25.4299C20.533 25.4281 20.4095 25.4 20.2958 25.3473L4.25416 14.3878L20.2354 3.99418C20.3586 3.94145 20.4911 3.91427 20.625 3.91427C20.7589 3.91427 20.8914 3.94145 21.0146 3.99418L37.4542 14.6738L21.0229 25.3577Z" fill="#0080D4"/>
<path d="M18.5083 9.98439L9.43333 15.8807L12.2708 17.8287L20.2354 12.6548C20.3586 12.6021 20.4911 12.5749 20.625 12.5749C20.7589 12.5749 20.8914 12.6021 21.0146 12.6548L29.2167 17.9832L32.1333 16.0915L22.7437 9.98439C22.1039 9.60023 21.372 9.39732 20.626 9.39732C19.8801 9.39732 19.1482 9.60023 18.5083 9.98439Z" fill="#0080D4"/>
<path d="M39.9812 21.184L38.1854 20.0168L35.2687 21.9085L37.4604 23.3345L21.0208 34.0142C20.9061 34.0642 20.7824 34.0901 20.6573 34.0901C20.5322 34.0901 20.4084 34.0642 20.2937 34.0142L4.25208 23.0526L6.33541 21.7018L3.4875 19.7454L1.76875 20.8603C1.39344 21.0777 1.08099 21.3892 0.862069 21.7642C0.643146 22.1392 0.525273 22.5648 0.52002 22.9992C0.514767 23.4336 0.622315 23.8619 0.832107 24.2421C1.0419 24.6223 1.34673 24.9412 1.71666 25.1677L18.4958 36.6345C19.1289 37.0377 19.8616 37.256 20.6116 37.2648C21.3617 37.2737 22.0993 37.0728 22.7417 36.6846L39.9792 25.483C40.3566 25.2659 40.6702 24.9528 40.8882 24.5754C41.1063 24.198 41.2211 23.7696 41.2211 23.3335C41.2211 22.8973 41.1063 22.4689 40.8882 22.0915C40.6702 21.7141 40.3566 21.4011 39.9792 21.184H39.9812Z" fill="#0080D4"/>
<path d="M61.1646 14.7657C60.2049 13.2346 58.7729 12.469 56.8687 12.469C55.9634 12.4538 55.0661 12.6406 54.2417 13.0158C53.4173 13.391 52.6864 13.9452 52.1021 14.6384C50.8062 16.1291 50.1583 18.0702 50.1583 20.4615C50.1583 22.8529 50.8375 24.8225 52.1958 26.3703C52.795 27.0817 53.5441 27.6511 54.3893 28.0374C55.2344 28.4237 56.1545 28.6174 57.0833 28.6044C59.0278 28.6044 60.4708 27.6725 61.4125 25.8087L61.85 28.1659H64.8917V6.59572H61.1646V14.7657ZM61.1646 21.3969C61.1792 21.9087 61.0894 22.4181 60.9006 22.8938C60.7118 23.3695 60.428 23.8015 60.0667 24.1634C59.7347 24.5199 59.3293 24.7998 58.8788 24.9838C58.4282 25.1678 57.9431 25.2514 57.457 25.229C56.971 25.2066 56.4956 25.0786 56.0638 24.8538C55.632 24.6291 55.2541 24.313 54.9562 23.9275C54.2451 23.0589 53.8896 21.9119 53.8896 20.4866C53.8896 19.0612 54.2368 17.9247 54.9312 17.077C55.2395 16.6759 55.6365 16.3521 56.0909 16.1311C56.5454 15.9101 57.0449 15.7979 57.55 15.8034C58.5958 15.8034 59.4292 16.1173 60.05 16.7451C60.756 17.4555 61.1561 18.4149 61.1646 19.4176V21.3969Z" fill="white"/>
<path d="M76.8437 12.4711C74.8382 12.4711 73.3104 13.435 72.2604 15.3629V6.59363H68.5667V28.1555H72.2667V21.0879C72.3083 19.3271 72.6792 18.0048 73.3792 17.1209C74.0792 16.237 74.9208 15.7971 75.9042 15.8013C76.8861 15.8013 77.65 16.0895 78.1958 16.6657C78.7417 17.242 79.0132 18.0959 79.0104 19.2276V28.1534H82.7083V19.2297C82.7083 17.196 82.2326 15.5612 81.2812 14.3252C80.3299 13.0891 78.8507 12.4711 76.8437 12.4711Z" fill="white"/>
<path d="M89.9521 12.849H86.2521V28.1555H89.9521V12.849Z" fill="white"/>
<path d="M88.1021 5.77725C87.3715 5.77725 86.8069 5.97143 86.4083 6.35978C86.2054 6.56893 86.0477 6.81782 85.9452 7.09087C85.8426 7.36392 85.7975 7.65524 85.8125 7.94659C85.7972 8.23797 85.8423 8.52937 85.9448 8.80245C86.0474 9.07554 86.2052 9.3244 86.4083 9.53341C86.8062 9.92176 87.3708 10.1138 88.1021 10.1138C88.8333 10.1138 89.3729 9.92176 89.7792 9.53341C89.9867 9.32682 90.1485 9.07876 90.254 8.80536C90.3595 8.53196 90.4064 8.23936 90.3917 7.94659C90.4064 7.65383 90.3595 7.36122 90.254 7.08782C90.1485 6.81443 89.9867 6.56636 89.7792 6.35978C89.375 5.97143 88.8125 5.77725 88.1021 5.77725Z" fill="white"/>
<path d="M102.998 19.9521L99.3917 18.6012C98.1583 18.2435 97.5417 17.6985 97.5417 16.9664C97.5417 16.5488 97.7667 16.1764 98.2167 15.8493C98.6646 15.5257 99.2979 15.3629 100.112 15.3629C100.927 15.3629 101.556 15.5111 101.987 15.8034C102.193 15.9316 102.365 16.1065 102.491 16.3141C102.616 16.5216 102.69 16.7558 102.708 16.9977H106.19C106.175 16.3687 106.019 15.7511 105.733 15.1905C105.448 14.63 105.041 14.1409 104.542 13.7593C103.486 12.9005 101.981 12.4711 100.027 12.4711C98.0729 12.4711 96.5153 12.8643 95.3542 13.6508C94.1931 14.4358 93.6125 15.4798 93.6125 16.7826C93.6125 18.7314 94.8458 20.1351 97.3125 20.994L100.646 22.1862C101.174 22.3293 101.673 22.5639 102.121 22.8793C102.277 23.008 102.401 23.1719 102.483 23.3577C102.564 23.5434 102.601 23.7458 102.59 23.9484C102.59 24.4077 102.333 24.8127 101.823 25.1573C101.236 25.5236 100.553 25.704 99.8625 25.6751C97.7944 25.6751 96.7382 24.9526 96.6937 23.5078H93.2458C93.2667 25.1225 93.8917 26.3752 95.1208 27.266C96.35 28.1569 97.9826 28.603 100.019 28.6044C102.047 28.6044 103.677 28.1228 104.91 27.1596C106.102 26.2367 106.698 25.1475 106.698 23.892C106.715 23.4464 106.638 23.0022 106.474 22.588C106.309 22.1737 106.06 21.7986 105.742 21.4867C105.108 20.8617 104.194 20.3502 102.998 19.9521Z" fill="white"/>
<path d="M113.346 24.7605V24.011C113.34 23.7547 113.389 23.5003 113.49 23.2645C113.59 23.0287 113.739 22.817 113.927 22.6434C114.312 22.278 114.946 21.9774 115.825 21.7477L119.117 20.9292C120.956 20.4671 122.292 19.8115 123.125 18.9624C123.958 18.1133 124.372 16.9135 124.365 15.3628C124.365 13.8136 123.727 12.5149 122.452 11.4668C121.133 10.3769 119.449 9.83197 117.402 9.83197C115.209 9.83197 113.453 10.3031 112.133 11.2455C110.747 12.2519 110.036 13.6981 110 15.5842H114.108C114.317 13.9138 115.477 13.0787 117.59 13.0787C118.551 13.0787 119.303 13.309 119.846 13.7698C120.105 13.9768 120.313 14.2403 120.454 14.5403C120.596 14.8403 120.667 15.1688 120.662 15.5007C120.67 15.8242 120.611 16.1458 120.49 16.4457C120.368 16.7455 120.187 17.0173 119.956 17.2441C119.485 17.7159 118.675 18.098 117.525 18.3903L114.54 19.1044C112.844 19.522 111.61 20.1713 110.837 21.0524C110.044 21.9948 109.647 23.3352 109.646 25.0737V28.1555H124.479V24.7605H113.346Z" fill="white"/>
</g>
<defs>
<clipPath id="clip0_36_89">
<rect width="125" height="38" fill="white"/>
</clipPath>
</defs>
</svg>
